<?xml version="1.0" encoding="UTF-8" standalone="no"?>
<!DOCTYPE svg PUBLIC "-//W3C//DTD SVG 1.1//EN"
 "http://www.w3.org/Graphics/SVG/1.1/DTD/svg11.dtd">
<!-- Generated by graphviz version 2.38.0 (20140413.2041)
 -->
<!-- Title: models_diagram Pages: 1 -->
<svg width="748pt" height="288pt"
 viewBox="0.00 0.00 747.55 288.00" xmlns="http://www.w3.org/2000/svg" xmlns:xlink="http://www.w3.org/1999/xlink">
<g id="graph0" class="graph" transform="scale(1 1) rotate(0) translate(4 284)">
<title>models_diagram</title>
<polygon fill="none" stroke="none" points="-4,4 -4,-284 743.55,-284 743.55,4 -4,4"/>
<!-- _diagram_info -->
<g id="node1" class="node"><title>_diagram_info</title>
<text text-anchor="start" x="8" y="-251.6" font-family="Times,serif" font-size="13.00">Models diagram</text>
<text text-anchor="start" x="8" y="-238.6" font-family="Times,serif" font-size="13.00">Date: Oct 28 2016 &#45; 20:29</text>
<text text-anchor="start" x="8" y="-225.6" font-family="Times,serif" font-size="13.00">Migration version: 20161028225109</text>
<text text-anchor="start" x="8" y="-212.6" font-family="Times,serif" font-size="13.00">Generated by RailRoady 1.5.2</text>
<text text-anchor="start" x="8" y="-199.6" font-family="Times,serif" font-size="13.00">http://railroady.prestonlee.com</text>
</g>
<!-- Category -->
<g id="node2" class="node"><title>Category</title>
<path fill="none" stroke="black" d="M237.825,-186.5C237.825,-186.5 461.55,-186.5 461.55,-186.5 467.55,-186.5 473.55,-192.5 473.55,-198.5 473.55,-198.5 473.55,-260.5 473.55,-260.5 473.55,-266.5 467.55,-272.5 461.55,-272.5 461.55,-272.5 237.825,-272.5 237.825,-272.5 231.825,-272.5 225.825,-266.5 225.825,-260.5 225.825,-260.5 225.825,-198.5 225.825,-198.5 225.825,-192.5 231.825,-186.5 237.825,-186.5"/>
<text text-anchor="middle" x="349.688" y="-257.3" font-family="Times,serif" font-size="14.00">Category</text>
<polyline fill="none" stroke="black" points="225.825,-250.5 473.55,-250.5 "/>
<text text-anchor="start" x="233.825" y="-235.3" font-family="Times,serif" font-size="14.00">id :integer</text>
<text text-anchor="start" x="233.825" y="-221.3" font-family="Times,serif" font-size="14.00">name :character varying</text>
<text text-anchor="start" x="233.825" y="-207.3" font-family="Times,serif" font-size="14.00">created_at :timestamp without time zone</text>
<text text-anchor="start" x="233.825" y="-193.3" font-family="Times,serif" font-size="14.00">updated_at :timestamp without time zone</text>
</g>
<!-- Item -->
<g id="node3" class="node"><title>Item</title>
<path fill="none" stroke="black" d="M370.825,-0.5C370.825,-0.5 594.55,-0.5 594.55,-0.5 600.55,-0.5 606.55,-6.5 606.55,-12.5 606.55,-12.5 606.55,-130.5 606.55,-130.5 606.55,-136.5 600.55,-142.5 594.55,-142.5 594.55,-142.5 370.825,-142.5 370.825,-142.5 364.825,-142.5 358.825,-136.5 358.825,-130.5 358.825,-130.5 358.825,-12.5 358.825,-12.5 358.825,-6.5 364.825,-0.5 370.825,-0.5"/>
<text text-anchor="middle" x="482.688" y="-127.3" font-family="Times,serif" font-size="14.00">Item</text>
<polyline fill="none" stroke="black" points="358.825,-120.5 606.55,-120.5 "/>
<text text-anchor="start" x="366.825" y="-105.3" font-family="Times,serif" font-size="14.00">category_id :integer</text>
<text text-anchor="start" x="366.825" y="-91.3" font-family="Times,serif" font-size="14.00">name :character varying</text>
<text text-anchor="start" x="366.825" y="-77.3" font-family="Times,serif" font-size="14.00">created_at :timestamp without time zone</text>
<text text-anchor="start" x="366.825" y="-63.3" font-family="Times,serif" font-size="14.00">updated_at :timestamp without time zone</text>
<text text-anchor="start" x="366.825" y="-49.3" font-family="Times,serif" font-size="14.00">nserial :integer</text>
<text text-anchor="start" x="366.825" y="-35.3" font-family="Times,serif" font-size="14.00">size :integer</text>
<text text-anchor="start" x="366.825" y="-21.3" font-family="Times,serif" font-size="14.00">description :text</text>
<text text-anchor="start" x="366.825" y="-7.3" font-family="Times,serif" font-size="14.00">id :integer</text>
</g>
<!-- Category&#45;&gt;Item -->
<g id="edge1" class="edge"><title>Category&#45;&gt;Item</title>
<path fill="none" stroke="#c6bf6c" d="M390.88,-180.184C398.941,-170.729 407.586,-160.589 416.23,-150.45"/>
<ellipse fill="none" stroke="#c6bf6c" cx="388.275" cy="-183.24" rx="4.00002" ry="4.00002"/>
<polygon fill="#c6bf6c" stroke="#c6bf6c" points="416.342,-150.319 426.254,-145.629 419.586,-146.514 422.83,-142.709 422.83,-142.709 422.83,-142.709 419.586,-146.514 419.406,-139.789 416.342,-150.319 416.342,-150.319"/>
</g>
<!-- UserValidation -->
<g id="node4" class="node"><title>UserValidation</title>
<path fill="none" stroke="black" d="M503.825,-179.5C503.825,-179.5 727.55,-179.5 727.55,-179.5 733.55,-179.5 739.55,-185.5 739.55,-191.5 739.55,-191.5 739.55,-267.5 739.55,-267.5 739.55,-273.5 733.55,-279.5 727.55,-279.5 727.55,-279.5 503.825,-279.5 503.825,-279.5 497.825,-279.5 491.825,-273.5 491.825,-267.5 491.825,-267.5 491.825,-191.5 491.825,-191.5 491.825,-185.5 497.825,-179.5 503.825,-179.5"/>
<text text-anchor="middle" x="615.688" y="-264.3" font-family="Times,serif" font-size="14.00">UserValidation</text>
<polyline fill="none" stroke="black" points="491.825,-257.5 739.55,-257.5 "/>
<text text-anchor="start" x="499.825" y="-242.3" font-family="Times,serif" font-size="14.00">id :integer</text>
<text text-anchor="start" x="499.825" y="-228.3" font-family="Times,serif" font-size="14.00">name :character varying</text>
<text text-anchor="start" x="499.825" y="-214.3" font-family="Times,serif" font-size="14.00">email :character varying</text>
<text text-anchor="start" x="499.825" y="-200.3" font-family="Times,serif" font-size="14.00">created_at :timestamp without time zone</text>
<text text-anchor="start" x="499.825" y="-186.3" font-family="Times,serif" font-size="14.00">updated_at :timestamp without time zone</text>
</g>
<!-- UserValidation&#45;&gt;Item -->
<g id="edge2" class="edge"><title>UserValidation&#45;&gt;Item</title>
<path fill="none" stroke="#6c87d0" d="M568.198,-172.797C562.077,-165.618 555.722,-158.164 549.365,-150.707"/>
<ellipse fill="none" stroke="#6c87d0" cx="571.011" cy="-176.097" rx="4.00002" ry="4.00002"/>
<polygon fill="#6c87d0" stroke="#6c87d0" points="548.964,-150.238 545.901,-139.709 545.72,-146.433 542.476,-142.628 542.476,-142.628 542.476,-142.628 545.72,-146.433 539.052,-145.548 548.964,-150.238 548.964,-150.238"/>
</g>
</g>
</svg>
