<?xml version="1.0" encoding="UTF-8" standalone="no"?>
<!DOCTYPE svg PUBLIC "-//W3C//DTD SVG 1.1//EN"
 "http://www.w3.org/Graphics/SVG/1.1/DTD/svg11.dtd">
<!-- Generated by graphviz version 2.38.0 (20140413.2041)
 -->
<!-- Title: models_diagram Pages: 1 -->
<svg width="463pt" height="153pt"
 viewBox="0.00 0.00 462.84 153.00" xmlns="http://www.w3.org/2000/svg" xmlns:xlink="http://www.w3.org/1999/xlink">
<g id="graph0" class="graph" transform="scale(1 1) rotate(0) translate(4 149)">
<title>models_diagram</title>
<polygon fill="none" stroke="none" points="-4,4 -4,-149 458.842,-149 458.842,4 -4,4"/>
<!-- _diagram_info -->
<g id="node1" class="node"><title>_diagram_info</title>
<text text-anchor="start" x="8" y="-130.6" font-family="Times,serif" font-size="13.00">Models diagram</text>
<text text-anchor="start" x="8" y="-117.6" font-family="Times,serif" font-size="13.00">Date: Oct 28 2016 &#45; 20:29</text>
<text text-anchor="start" x="8" y="-104.6" font-family="Times,serif" font-size="13.00">Migration version: 20161028225109</text>
<text text-anchor="start" x="8" y="-91.6" font-family="Times,serif" font-size="13.00">Generated by RailRoady 1.5.2</text>
<text text-anchor="start" x="8" y="-78.6" font-family="Times,serif" font-size="13.00">http://railroady.prestonlee.com</text>
</g>
<!-- Category -->
<g id="node2" class="node"><title>Category</title>
<ellipse fill="none" stroke="black" cx="267.688" cy="-108.5" rx="42.5456" ry="18"/>
<text text-anchor="middle" x="267.688" y="-104.3" font-family="Times,serif" font-size="14.00">Category</text>
</g>
<!-- Item -->
<g id="node3" class="node"><title>Item</title>
<ellipse fill="none" stroke="black" cx="329.688" cy="-18" rx="27" ry="18"/>
<text text-anchor="middle" x="329.688" y="-13.8" font-family="Times,serif" font-size="14.00">Item</text>
</g>
<!-- Category&#45;&gt;Item -->
<g id="edge1" class="edge"><title>Category&#45;&gt;Item</title>
<path fill="none" stroke="#7b7524" d="M284.124,-84.038C293.005,-71.3611 303.95,-55.7384 312.887,-42.9821"/>
<ellipse fill="none" stroke="#7b7524" cx="281.645" cy="-87.5778" rx="4.00002" ry="4.00002"/>
<polygon fill="#7b7524" stroke="#7b7524" points="312.965,-42.8704 322.388,-37.2623 315.834,-38.7754 318.703,-34.6803 318.703,-34.6803 318.703,-34.6803 315.834,-38.7754 315.017,-32.0983 312.965,-42.8704 312.965,-42.8704"/>
</g>
<!-- UserValidation -->
<g id="node4" class="node"><title>UserValidation</title>
<ellipse fill="none" stroke="black" cx="391.688" cy="-108.5" rx="63.3097" ry="18"/>
<text text-anchor="middle" x="391.688" y="-104.3" font-family="Times,serif" font-size="14.00">UserValidation</text>
</g>
<!-- UserValidation&#45;&gt;Item -->
<g id="edge2" class="edge"><title>UserValidation&#45;&gt;Item</title>
<path fill="none" stroke="#c95e39" d="M374.952,-83.6118C366.074,-70.9385 355.199,-55.4156 346.334,-42.7615"/>
<ellipse fill="none" stroke="#c95e39" cx="377.438" cy="-87.1602" rx="4.00002" ry="4.00002"/>
<polygon fill="#c95e39" stroke="#c95e39" points="346.305,-42.7196 344.253,-31.9475 343.436,-38.6246 340.567,-34.5295 340.567,-34.5295 340.567,-34.5295 343.436,-38.6246 336.882,-37.1115 346.305,-42.7196 346.305,-42.7196"/>
</g>
</g>
</svg>
